<svg xmlns="http://www.w3.org/2000/svg" viewBox="0 0 128 128">
  <defs>
    <linearGradient id="bg" x1="0" y1="0" x2="1" y2="1"><stop offset="0" stop-color="#5B4BF5"/><stop offset="1" stop-color="#A24BEA"/></linearGradient>
    <linearGradient id="wood" x1="0" x2="1"><stop offset="0" stop-color="#E7B37A"/><stop offset="1" stop-color="#B97A3E"/></linearGradient>
    <linearGradient id="straw" x1="0" y1="0" x2="0" y2="1"><stop offset="0" stop-color="#FFE17A"/><stop offset="1" stop-color="#F2A81D"/></linearGradient>
    <radialGradient id="glow"><stop offset="0" stop-color="#FFF6B0" stop-opacity=".9"/><stop offset="1" stop-color="#FFF6B0" stop-opacity="0"/></radialGradient>
  </defs>
  <rect width="128" height="128" rx="28" fill="url(#bg)"/>
  <circle cx="30" cy="96" r="26" fill="url(#glow)"/>
  <g transform="rotate(38 64 64)">
    <rect x="59" y="4" width="10" height="66" rx="5" fill="url(#wood)"/>
    <rect x="47" y="66" width="34" height="10" rx="4" fill="#7A4A1E"/>
    <path d="M49 76 H79 L94 114 Q64 124 34 114 Z" fill="url(#straw)"/>
    <path d="M56 80 L50 114 M64 80 V117 M72 80 L78 114" stroke="#C98A12" stroke-width="3" stroke-linecap="round" fill="none"/>
  </g>
  <path d="M26 20 Q26 34 40 34 Q26 34 26 48 Q26 34 12 34 Q26 34 26 20Z" fill="#FFF"/>
  <path d="M20 69 Q20 78 29 78 Q20 78 20 87 Q20 78 11 78 Q20 78 20 69Z" fill="#FFE17A"/>
  <path d="M44 105 Q44 112 51 112 Q44 112 44 119 Q44 112 37 112 Q44 112 44 105Z" fill="#FFF"/>
  <circle cx="44" cy="54" r="3.5" fill="#FFF" opacity=".85"/>
  <circle cx="12" cy="104" r="2.5" fill="#FFF" opacity=".8"/>
</svg>
